<svg id="Layer_1" data-name="Layer 1" xmlns="http://www.w3.org/2000/svg" viewBox="0 0 99.04 99.04"><defs><style>.cls-1{fill:#fff;}</style></defs><title>codepen-icon</title><path class="cls-1" d="M49.35,0a49.52,49.52,0,1,1-35,14.5A49.34,49.34,0,0,1,49.35,0Zm32.3,17.25A45.71,45.71,0,1,0,95,49.52,45.59,45.59,0,0,0,81.65,17.25Z" transform="translate(0.17)"/><path class="cls-1" d="M48.68,16.38c-.45.16-30.63,20.29-31,20.67a2.56,2.56,0,0,0-.41.62c-.12.32-.12.64-.12,10.81s0,10.49.12,10.81a2.34,2.34,0,0,0,.4.62c.35.38,30.48,20.48,31,20.65a2.63,2.63,0,0,0,.69.12,2.7,2.7,0,0,0,.69-.12C50.48,80.4,80.64,60.29,81,59.93a1.82,1.82,0,0,0,.51-1c.06-.27.07-3,.06-10.68l0-10.32-.14-.3a3,3,0,0,0-.4-.58c-.17-.19-5.23-3.6-15.33-10.34-8.3-5.53-15.23-10.13-15.4-10.22a2.34,2.34,0,0,0-1.56-.11ZM47.17,29.9v7.44l-6.43,4.28L34.3,45.9l-5.57-3.71c-3.06-2-5.54-3.72-5.52-3.74s23.91-16,23.95-16,0,3.34,0,7.44Zm28.28,8.53S73,40.15,69.94,42.19L64.37,45.9l-6.43-4.28-6.43-4.28V22.46l11.94,8c6.57,4.38,12,8,12,8ZM54.91,44.74c3,2,5.53,3.71,5.53,3.74S58,50.19,54.9,52.22l-5.55,3.7-5.56-3.7c-3-2-5.55-3.73-5.54-3.76s11-7.41,11.09-7.41,2.52,1.67,5.57,3.69ZM26,45.49c2.45,1.63,4.44,3,4.44,3s-8.82,5.93-8.93,6-.06-2.45-.06-6,0-6,.06-6,2.05,1.35,4.49,3Zm51.31,3c0,3.52,0,6-.06,6s-8.94-5.94-8.94-6,8.87-6,9-6,0,2.69,0,6ZM47.17,67.06v7.45L36.34,67.29c-6-4-11.35-7.57-12-8a10.38,10.38,0,0,1-1.13-.81l5.57-3.73,5.54-3.7,6.42,4.28,6.42,4.28v7.44ZM70,54.81c3,2,5.48,3.7,5.45,3.73l-12,8-11.94,8V59.62l6.42-4.28c3.53-2.35,6.45-4.26,6.49-4.24L70,54.81Z" transform="translate(0.17)"/></svg>