<svg id="Layer_1" data-name="Layer 1" xmlns="http://www.w3.org/2000/svg" viewBox="0 0 99.04 99.04"><defs><style>.cls-1{fill:#fff;}</style></defs><title>github-logo</title><path class="cls-1" d="M49,0A49.51,49.51,0,1,1,14,14.5,49.36,49.36,0,0,1,49,0ZM81.28,17.25A45.6,45.6,0,1,0,94.66,49.52,45.41,45.41,0,0,0,81.28,17.25Z" transform="translate(0.51)"/><path class="cls-1" d="M49.11,96c-1-.1-2.07-.13-3.08-.3-2.2-.38-4.39-.82-6.57-1.24a.89.89,0,0,1-.21-.07c.29-1.26.61-2.48.85-3.71a10.56,10.56,0,0,0,.16-2c0-2.25,0-4.5,0-6.75,0-.17,0-.35,0-.53-1,.14-2,.31-2.95.39a11.87,11.87,0,0,1-8.94-2.4,9.33,9.33,0,0,1-2.84-3.94A14.84,14.84,0,0,0,22.17,70c-.48-.48-1.06-.85-1.58-1.28a13.7,13.7,0,0,1-1.46-1.27c-.54-.61-.36-1.1.43-1.33a4.65,4.65,0,0,1,2.81.13,9.35,9.35,0,0,1,5.17,4.32,11.22,11.22,0,0,0,3,3.43A8.66,8.66,0,0,0,38,75.19c.67-.16,1.31-.43,2-.64a.64.64,0,0,0,.47-.58A10.35,10.35,0,0,1,42,69.64c.3-.44.66-.84,1-1.28-1-.17-2.07-.32-3.1-.51a24.06,24.06,0,0,1-8.33-3,16,16,0,0,1-6.71-8.13,27.36,27.36,0,0,1-1.43-14.22,16.27,16.27,0,0,1,3.78-8,.91.91,0,0,0,.21-1A15.07,15.07,0,0,1,27,26c.22-1.17.61-2.31.9-3.47a.6.6,0,0,1,.65-.5,11.56,11.56,0,0,1,5,1,31.45,31.45,0,0,1,6.2,3.41,1,1,0,0,0,.89.16,40,40,0,0,1,21,0,1.13,1.13,0,0,0,1-.18,28.2,28.2,0,0,1,7.75-3.94,9.73,9.73,0,0,1,3.3-.46.7.7,0,0,1,.73.54,17,17,0,0,1,.36,11.23.59.59,0,0,0,.11.46A17.41,17.41,0,0,1,79,43.31a27.35,27.35,0,0,1,0,6.2,24,24,0,0,1-2.09,8.28A16.8,16.8,0,0,1,67,66.58a33.33,33.33,0,0,1-7.37,1.66l-.39.06c0,.07,0,.12,0,.15A9.91,9.91,0,0,1,62,75.23c.13,3.14.05,6.28.06,9.42,0,.45,0,.91,0,1.36a22.06,22.06,0,0,0,1.14,8.38l-.58.18A44.68,44.68,0,0,1,53.72,96a4.85,4.85,0,0,0-.53.08Z" transform="translate(0.51)"/></svg>